<svg width="210" height="171" viewBox="0 0 210 171" fill="none" xmlns="http://www.w3.org/2000/svg">
<path d="M82.7928 65.4815C82.8876 65.3923 82.9879 65.3087 83.0927 65.2307C83.5131 66.9823 83.8108 68.6983 85.7687 70.0185C86.4365 70.3586 87.1709 70.5476 87.9198 70.5722C88.6688 70.5967 89.414 70.4561 90.1026 70.1604C90.7912 69.8647 91.4062 69.4211 91.9042 68.8611C92.4021 68.301 92.7707 67.6383 92.9839 66.9199C93.9015 67.3135 94.8303 67.6803 95.7814 67.9948C114.802 74.2254 128.239 53.3883 145.673 56.4489C152.111 57.5807 156.502 62.2837 161.863 65.3689C164.676 66.8856 167.775 67.7971 170.961 68.0449C171.095 68.0432 171.223 67.9895 171.317 67.8951C171.412 67.8008 171.466 67.6734 171.468 67.5398C171.566 47.307 171.153 23.3658 171.356 12.8825C171.356 12.5792 171.164 12.5012 170.985 12.3942C160.615 8.25082 149.188 4.73968 137.931 6.81247C127.605 8.70797 118.789 16.4438 108.584 14.0667C99.927 12.0507 94.1033 4.29368 85.7085 1.61545C77.8935 -0.878803 69.667 1.44486 62.3158 5.0831C59.2203 6.56082 56.2329 8.25499 53.3757 10.153C52.9855 10.4117 52.3176 10.6693 52.2529 11.1822C52.2529 13.2226 52.3644 26.5413 52.5584 64.633C52.56 64.7215 52.5844 64.808 52.6295 64.8842C52.6745 64.9603 52.7385 65.0235 52.8153 65.0674C52.8921 65.1114 52.979 65.1346 53.0674 65.1349C53.1559 65.1352 53.2429 65.1125 53.32 65.069C56.2005 63.151 59.4279 61.814 62.8209 61.133C69.4271 59.5454 76.3526 59.9162 82.7515 62.2001C82.7426 62.8579 82.7861 63.5158 82.8831 64.1681C82.5899 64.335 82.3178 64.5363 82.0725 64.7679C81.6031 65.2106 82.32 65.9287 82.7928 65.4815ZM86.634 69.3361C84.9224 68.5935 84.3081 66.6222 84.1687 64.8884V64.7233C85.9415 64.245 86.3864 65.4369 86.8146 64.7122C87.0259 64.3718 87.3081 64.081 87.6419 63.8595C87.9758 63.638 88.3535 63.4911 88.7492 63.4288C89.145 63.3665 89.5495 63.3902 89.9353 63.4983C90.3211 63.6065 90.679 63.7965 90.9847 64.0555C91.4574 64.5015 92.1833 63.7789 91.7005 63.3419C91.3116 62.9966 90.856 62.7347 90.362 62.5723C89.8679 62.4098 89.3459 62.3503 88.8279 62.3973C88.31 62.4443 87.8072 62.5969 87.3505 62.8456C86.8937 63.0944 86.4928 63.434 86.1723 63.8436C85.8891 63.5426 84.7418 63.5961 84.298 63.6708C84.5103 62.8328 84.9888 62.0864 85.6615 61.5435C86.3342 61.0007 87.1649 60.6908 88.0288 60.6603C89.1233 60.7132 90.1593 61.17 90.9367 61.9422C91.7141 62.7145 92.1777 63.7474 92.2379 64.8415C92.4799 68.0639 89.301 70.4879 86.634 69.3361ZM92.9192 63.2605C92.6076 62.3347 92.0465 61.513 91.2978 60.8858C90.549 60.2586 89.6416 59.8503 88.6755 59.7058C87.69 59.5855 86.6912 59.7683 85.8122 60.2298C84.9332 60.6914 84.2156 61.4097 83.755 62.2893C83.7279 60.0909 84.3763 57.9372 85.6126 56.1192C86.8489 54.3012 88.6136 52.9066 90.668 52.1238C95.351 50.2707 101.254 50.0522 106.004 49.8347C106.739 49.7933 107.477 49.7993 108.211 49.8526C108.48 49.855 108.744 49.9269 108.977 50.0613C109.21 50.1957 109.405 50.388 109.542 50.6197C109.628 50.91 109.633 51.2183 109.558 51.5115C109.482 51.8047 109.328 52.0719 109.112 52.2844C108.033 53.1125 106.789 53.6992 105.464 54.0048L101.024 55.6216C100.909 55.6574 100.811 55.7327 100.747 55.834C100.682 55.9354 100.656 56.0563 100.672 56.1753C100.688 56.2943 100.746 56.4038 100.835 56.4843C100.924 56.5648 101.039 56.6111 101.159 56.6151L104.393 56.7511C105.131 56.7812 106.177 56.6786 106.774 57.206C106.995 57.4729 107.109 57.8118 107.096 58.1578C107.082 58.5038 106.941 58.8327 106.701 59.0814C106.066 59.708 105.266 60.1418 104.395 60.3325C102.326 61.0048 94.9965 62.7654 92.9192 63.256V63.2605ZM170.292 66.921C166.154 66.3999 162.226 64.7961 158.906 62.2715C155.594 59.9199 152.341 57.3766 148.425 56.0966C139.86 53.2924 130.868 57.2339 123.36 61.1854C112.492 66.9065 104.221 70.8302 93.1935 65.913C93.2738 65.3555 93.2649 64.7869 93.169 64.2316C95.5726 63.6559 97.9735 63.0694 100.372 62.4722C102.089 62.0931 103.769 61.5735 105.442 61.0338C106.402 60.7365 107.227 60.1124 107.774 59.2699C108.02 58.8595 108.134 58.3838 108.102 57.9066C108.07 57.4294 107.893 56.9733 107.595 56.5994C106.783 55.6996 105.394 55.7777 103.72 55.7075C107.706 54.2579 108.438 54.1052 109.393 53.366C120.629 51.8507 132.352 44.8161 145.576 46.2411C154.26 47.1777 161.672 51.9053 170.283 55.0228L170.292 66.921ZM53.2687 11.4498C56.8184 9.04086 60.5712 6.94567 64.4845 5.18791C87.914 -5.30424 93.344 10.0504 106.482 14.5138C114.733 17.2054 121.071 14.0243 128.894 10.7674C138.951 6.5772 148.295 4.93258 167.487 12.131C168.427 12.4834 169.36 12.8502 170.292 13.2204V24.5543C165.779 21.6553 161.874 19.1656 156.718 18.0048C150.93 16.7181 142.313 16.6445 136.264 19.1511C132.426 20.77 128.965 23.2007 124.997 24.5231C116.107 27.4323 106.431 26.7422 98.0438 22.6009C91.4351 19.3562 85.6026 14.0042 78.0317 13.3586C69.1965 12.6049 60.7135 17.7239 53.3322 22.6131C53.3155 19.3216 53.2709 11.8757 53.2687 11.4486V11.4498ZM53.3401 23.8653C56.5989 21.6146 60.0092 19.5916 63.5468 17.8108C67.2765 15.8511 71.3637 14.6648 75.5631 14.3231C84.278 13.9496 90.6903 20.3887 98.1274 23.8073C102.796 26.023 107.881 27.2221 113.048 27.3253C118.214 27.4285 123.343 26.4335 128.096 24.4061C131.913 22.6745 134.601 20.7132 138.498 19.4175C142.812 17.9825 150.14 17.512 157.086 19.1321C161.914 20.3452 166.125 23.1461 170.292 25.8087V38.1406C167.11 36.5027 163.879 34.8213 160.536 33.4911C145.293 27.2136 137.456 34.0876 126.202 37.1148C118.098 39.2227 109.632 39.5366 101.394 38.0347C96.7682 37.1572 92.3628 35.4122 87.8894 33.9649C84.97 32.9396 81.9518 32.2206 78.8836 31.8197C70.695 30.8942 60.8061 33.6617 53.417 37.3077C53.3925 33.0205 53.349 25.2122 53.3401 23.8653ZM53.427 38.4383C60.4515 34.9439 68.4617 32.4775 76.3592 32.6637C84.2568 32.8499 91.3627 36.7513 98.9112 38.5621C102.815 39.4451 106.802 39.9112 110.804 39.9525C128.309 40.3483 135.275 33.6238 145.369 32.1966C154.289 30.9366 162.385 35.2182 170.292 39.3248V53.9424C163.094 51.2664 156.323 47.3037 148.754 45.707C134.577 42.7188 121.242 50.4536 110.348 52.2086C110.586 51.789 110.681 51.3034 110.619 50.8249C110.557 50.3464 110.342 49.9011 110.004 49.556C109.048 48.6027 107.45 48.7922 106.213 48.8201C102.881 48.8796 99.5555 49.1552 96.2586 49.6452C94.2374 49.9193 92.2544 50.4255 90.3491 51.1538C94.734 48.0847 99.6636 45.8796 104.874 44.6567C105.508 44.5095 105.24 43.5339 104.606 43.6811C98.9786 45.0009 93.6782 47.4495 89.0256 50.8784C85.0054 49.7552 80.9313 48.8349 76.8186 48.121C67.7392 46.6826 61.5097 47.6427 53.4884 50.6375C53.4727 47.0082 53.427 38.4372 53.427 38.4372V38.4383ZM82.8128 61.1576C73.1625 57.5305 60.5965 59.2297 53.5686 63.6964L53.4995 51.7325C67.5697 46.0817 77.0416 48.965 88.05 51.6912C86.5948 52.8447 85.3826 54.2752 84.4837 55.9001C83.5848 57.5249 83.0169 59.3119 82.8128 61.1576Z" fill="black"/>
<path d="M153.961 130.406C146.341 128.88 139.563 128.086 139.082 127.942C138.83 127.744 138.612 127.508 138.434 127.242C133.999 122.272 129.822 117.076 125.922 111.675C125.688 111.349 125.384 110.681 124.983 110.56C123.631 110.478 122.274 110.551 120.939 110.776C110.313 112.442 94.3895 119.169 84.8128 124.156C81.7097 125.797 78.7396 127.678 75.9296 129.782C71.6547 132.864 71.454 135.191 70.3702 140.288C69.8127 142.894 65.201 166.842 64.9178 168.027C64.8842 168.158 64.9041 168.298 64.973 168.415C65.042 168.532 65.1544 168.617 65.2858 168.651C65.3839 168.676 70.3345 168.667 97.5784 168.667C97.6885 168.665 97.7951 168.628 97.8827 168.561C97.9703 168.494 98.0344 168.401 98.0657 168.296C99.8006 162.721 101.317 156.189 102.637 150.089C102.652 150.022 102.703 149.889 102.722 149.783C105.982 147.25 110.304 143.909 113.097 142.06C114.558 144.959 116.044 147.872 117.684 150.677C118.643 152.392 119.981 153.864 121.596 154.981C123.212 156.099 125.061 156.832 127.003 157.124C128.282 157.403 147.263 160.873 150.904 161.709C150.979 161.728 151.058 161.73 151.133 161.714C151.209 161.699 151.28 161.666 151.341 161.619C151.403 161.572 151.453 161.512 151.489 161.444C151.523 161.375 151.542 161.299 151.544 161.222C152.241 151.907 153.531 145.664 154.332 130.894C154.338 130.782 154.304 130.671 154.236 130.582C154.168 130.492 154.07 130.43 153.961 130.406ZM102.264 148.869C101.639 149.355 101.818 149.154 101.372 151.126C100.281 156.071 98.6889 162.8 97.1993 167.658H81.4778C81.5054 167.616 81.5261 167.571 81.5391 167.523C86.8454 146.209 86.0527 147.222 86.1642 147.193C87.627 146.853 89.0977 146.548 90.5517 146.171C90.6364 146.146 90.7134 146.1 90.7751 146.037C90.8367 145.974 90.881 145.896 90.9034 145.811C90.9259 145.726 90.9259 145.636 90.9033 145.551C90.8807 145.465 90.8364 145.387 90.7747 145.324C89.5663 144.385 88.3034 143.518 86.9926 142.728C98.9376 135.137 99.3 134.365 109.112 131.336C111.206 136.884 112.768 141.065 112.768 141.065C109.126 143.447 105.691 146.191 102.264 148.869ZM150.584 160.619C141.069 158.67 128.046 156.58 124.984 155.573C119.999 153.934 118.251 149.693 116.392 146.215C114.19 142.09 113.903 141.35 113.697 141.035C113.797 140.793 113.808 140.863 111.73 135.364C110.838 132.99 108.366 126.612 108.019 125.805C107.951 125.689 107.84 125.605 107.711 125.571C107.581 125.537 107.443 125.556 107.327 125.623C107.214 125.694 107.132 125.805 107.099 125.933C107.065 126.062 107.082 126.198 107.146 126.315C107.146 126.315 108.472 129.668 108.751 130.389C105.683 131.257 102.687 132.362 99.7906 133.696C96.867 135.125 95.674 136.019 85.7795 142.304C85.7218 142.338 85.6717 142.384 85.632 142.438C85.5924 142.492 85.564 142.554 85.5487 142.619C85.5168 142.751 85.5384 142.89 85.6089 143.006C85.8051 143.329 86.541 143.452 89.2326 145.44C85.6368 146.28 85.7817 146.205 85.6457 146.38C85.5406 146.376 85.4376 146.41 85.3556 146.476C85.2736 146.541 85.2182 146.635 85.1997 146.738L80.4453 167.658C78.7093 167.658 66.2547 167.641 66.0384 167.634C68.0688 158.364 69.8116 147.387 71.7617 138.658C72.9559 133.306 73.7118 132.494 78.4517 129.203C83.2793 125.989 88.3981 123.236 93.7406 120.981C101.358 117.468 109.267 114.627 117.379 112.488C117.628 113.45 125.097 130.426 127.952 135.263C128.986 137.117 130.302 138.798 131.855 140.247C131.949 140.33 132.07 140.376 132.195 140.378C132.321 140.38 132.443 140.337 132.539 140.257C132.603 140.203 132.652 140.134 132.684 140.057L133.946 138.731L133.674 141.131C133.664 141.455 134.164 141.827 134.298 141.856C140.258 143.138 146.169 144.652 152.104 146.051C151.77 149.21 150.717 158.918 150.583 160.619H150.584ZM152.216 145.038L134.71 140.912L135.12 137.295C135.171 136.849 134.54 136.641 134.256 136.937L132.172 139.136C129.809 136.56 127.902 133.599 126.535 130.381C123.706 124.57 120.96 118.502 118.36 112.27C120.398 111.775 122.489 111.53 124.586 111.542C128.678 117.237 133.062 122.716 137.721 127.957C137.944 128.265 138.199 128.548 138.481 128.802C138.781 128.941 139.107 129.012 139.437 129.012C145.551 129.928 146.728 129.995 153.297 131.304C153.034 135.889 152.684 140.474 152.216 145.038Z" fill="black"/>
<path d="M162.878 162.691C163.332 162.658 163.779 162.559 164.204 162.397C164.834 162.101 165.343 161.598 165.648 160.971C166.15 159.816 166.401 158.567 166.385 157.307C166.604 152.348 166.147 147.382 165.027 142.546C164.526 139.436 163.304 136.487 161.459 133.935C160.818 132.863 159.781 132.088 158.572 131.776C158.438 131.779 158.31 131.833 158.214 131.927C158.167 131.974 158.13 132.03 158.105 132.091C158.079 132.153 158.067 132.219 158.067 132.286C159.373 135.896 160.353 139.617 160.996 143.402C162.018 149.608 162.478 155.894 162.37 162.183C162.37 162.25 162.383 162.316 162.408 162.378C162.434 162.439 162.471 162.495 162.519 162.542C162.566 162.59 162.622 162.627 162.684 162.652C162.745 162.678 162.811 162.691 162.878 162.691ZM159.474 133.269C159.913 133.639 160.307 134.06 160.647 134.521C162.255 136.726 163.347 139.265 163.839 141.949C165.02 146.584 165.538 151.362 165.379 156.142C165.42 157.325 165.317 158.509 165.072 159.667C165.004 160.07 164.838 160.45 164.59 160.776C164.342 161.101 164.019 161.361 163.649 161.534C163.562 161.56 163.474 161.583 163.385 161.602C163.491 152.646 162.448 141.648 159.474 133.269Z" fill="black"/>
<path d="M1.08219 48.414C2.77476 48.414 4.46621 48.4252 6.15878 48.4363C6.95151 52.8731 8.3298 57.1849 10.2575 61.2588C15.3025 72.5001 22.7152 82.5196 31.9889 90.6324C43.6139 100.327 56.2959 105.037 71.0139 108.345C77.5388 109.813 83.998 110.828 90.7025 111.674C90.6943 113.249 90.6898 114.825 90.6892 116.401C90.6897 116.468 90.7035 116.534 90.7296 116.596C90.7558 116.657 90.7938 116.713 90.8415 116.76C90.8893 116.807 90.9458 116.844 91.0078 116.869C91.0699 116.894 91.1363 116.907 91.2032 116.906C91.5287 116.906 99.7463 113.716 103.256 112.415C122.452 105.021 131.235 108.448 153.832 109.684C153.965 109.682 154.093 109.628 154.187 109.534C154.281 109.439 154.335 109.312 154.337 109.178C155.441 100.564 156.344 89.4639 157.217 82.688C157.217 82.5772 157.18 82.4695 157.113 82.3814C157.046 82.2932 156.952 82.2294 156.845 82.1997C130.557 77.3003 113.65 81.1248 93.6662 80.7435C85.9157 80.7519 78.2 79.7077 70.7307 77.6393C62.6249 75.2966 55.2653 70.8916 49.3706 64.8547C49.4398 64.859 49.5092 64.8491 49.5744 64.8256C49.6397 64.8021 49.6994 64.7655 49.7501 64.7181C49.8007 64.6707 49.8411 64.6135 49.8688 64.55C49.8966 64.4864 49.9111 64.4179 49.9114 64.3485C50.1009 21.7399 49.9638 13.015 49.7486 11.1128C49.6638 10.368 49.4475 10.3792 48.7206 10.3546C47.6959 10.319 45.108 10.3357 38.3622 10.3881C38.2285 10.3898 38.1007 10.4437 38.0062 10.5383C37.9116 10.6328 37.8577 10.7606 37.856 10.8943C37.856 13.5703 37.8683 20.5558 37.8828 27.5602H35.5479C35.6008 25.7561 35.3467 23.9561 34.7964 22.2372C34.5059 21.1377 33.8828 20.1548 33.0124 19.4229C31.9134 18.7957 30.629 18.5743 29.3833 18.7972C28.1377 19.0202 27.0098 19.6733 26.1964 20.6427C25.9792 19.8985 25.5994 19.2117 25.0846 18.6319C24.5698 18.0521 23.9327 17.5938 23.2194 17.2899C20.9716 16.3087 17.8206 17.1784 16.0131 20.1332C15.411 17.9433 12.8911 17.058 10.8841 17.5285C6.51446 18.4205 5.2088 23.971 3.8039 27.5702C2.38116 27.5702 1.66645 27.5591 1.28735 27.5702C0.618346 27.5847 0.589355 27.8044 0.55702 28.2292C0.47228 29.3442 0.467821 33.298 0.568171 47.9123C0.570805 48.0467 0.626191 48.1746 0.722367 48.2685C0.818542 48.3624 0.947787 48.4147 1.08219 48.414ZM69.5878 78.3418C74.3862 79.8308 79.3305 80.8008 84.3359 81.2352C109.23 83.4919 125.899 77.6449 156.151 83.1028C155.166 90.8911 154.237 101.787 153.386 108.646C143.595 108.089 134.452 106.917 126.988 106.805C113.029 106.575 104.713 110.97 91.6982 115.679C91.6982 114.198 91.7283 112.717 91.7105 111.236C91.7071 111.103 91.6528 110.977 91.5589 110.883C91.4649 110.788 91.3384 110.734 91.2054 110.73C83.9348 109.883 76.7173 108.629 69.5867 106.975V78.3418H69.5878ZM48.6392 11.4005C48.6392 11.4005 48.8622 63.287 48.8767 63.8434H38.9598C38.9598 57.0196 38.8673 15.1915 38.8673 11.4005H48.6392ZM38.4548 64.8558H47.988C53.6126 70.8909 60.6714 75.4063 68.5085 77.9827C68.5085 77.9827 68.4984 106.527 68.4929 106.715C62.4463 105.281 56.5309 103.341 50.809 100.917C44.9556 98.4394 39.4466 95.2164 34.4185 91.3282C19.2545 79.197 9.10795 60.2364 7.17454 48.4319C15.7444 48.5322 19.0125 48.559 19.105 48.5813C20.7184 48.8255 22.3642 48.7296 23.9386 48.3025C20.4449 50.9707 17.4227 54.205 14.9974 57.8715C14.6361 58.4145 15.5114 58.9218 15.8704 58.381C18.8838 53.8461 22.8171 49.9956 27.4151 47.0794C27.5034 47.0088 27.5651 46.9105 27.5902 46.8003C27.6153 46.6902 27.6024 46.5748 27.5535 46.473C27.5046 46.3712 27.4226 46.2889 27.3209 46.2397C27.2192 46.1904 27.1039 46.1771 26.9937 46.2019C26.648 46.242 22.8682 48.2089 19.3894 47.5845C19.1775 47.4786 16.526 47.1296 16.4346 44.6219C16.4494 44.1841 16.5611 43.7551 16.7616 43.3656C16.9622 42.9762 17.2465 42.636 17.5942 42.3696C18.4127 41.6366 19.2869 40.9682 20.2089 40.3704C21.9254 39.0495 23.9674 38.2176 26.1184 37.9631C28.1784 37.7979 30.2309 38.3628 31.9164 39.5587C34.5188 41.5576 36.5842 44.1713 37.9274 47.1652C37.9274 48.9347 37.9508 60.3903 37.9519 64.3496C37.9536 64.4828 38.007 64.61 38.1009 64.7045C38.1947 64.799 38.3216 64.8532 38.4548 64.8558ZM3.92098 30.7692C4.26077 29.1142 4.78435 27.5023 5.48197 25.9635C6.36728 23.4659 7.28939 20.5201 9.70559 19.0728C10.3072 18.6935 10.9952 18.4731 11.7053 18.4322C12.4153 18.3912 13.1241 18.5311 13.7653 18.8387C15.1646 19.656 15.449 21.2761 15.1368 23.011C15.0253 23.6477 15.9964 23.9208 16.1124 23.2797C16.2127 22.7289 16.2908 22.1759 16.3577 21.6206C17.272 19.3215 19.7529 17.3278 22.4378 18.0682C25.1138 18.9769 25.63 20.9204 25.1528 23.6878C25.0413 24.3234 26.0169 24.5965 26.1284 23.9554C26.2533 23.2318 26.4094 22.5171 26.5856 21.8046C27.1608 20.9113 28.0307 20.2477 29.0442 19.929C30.0577 19.6102 31.1508 19.6564 32.1338 20.0596C32.9234 20.5739 33.494 21.363 33.735 22.274C34.0795 23.215 34.307 24.1951 34.4129 25.1919C34.6502 27.4487 34.5532 29.7282 34.1252 31.9566C33.9374 32.5291 33.614 33.0478 33.1826 33.4683C32.7511 33.8889 32.2243 34.1988 31.6472 34.3719C31.0701 34.5449 30.4597 34.5758 29.868 34.462C29.2763 34.3483 28.7209 34.0931 28.2492 33.7183C26.6502 32.4584 26.0571 28.935 25.5587 26.5823C25.5235 26.4672 25.4486 26.3684 25.3473 26.3034C25.246 26.2384 25.1249 26.2116 25.0056 26.2277C24.8864 26.2438 24.7767 26.3017 24.6962 26.3912C24.6158 26.4807 24.5697 26.5958 24.5663 26.7161C24.2443 29.4486 23.2724 32.0642 21.732 34.3439C21.4064 34.8036 20.9775 35.1805 20.4798 35.4444C19.7798 35.7165 19.0198 35.7966 18.2784 35.6765C17.537 35.5563 16.8411 35.2402 16.2629 34.7609C15.8068 34.282 15.4544 33.7143 15.2276 33.0931C15.0008 32.4719 14.9046 31.8106 14.945 31.1505C14.8584 29.5261 15.0431 27.8986 15.4913 26.3348C15.5186 26.2084 15.4965 26.0764 15.4297 25.9656C15.3628 25.8549 15.2562 25.774 15.1317 25.7392C15.0071 25.7045 14.874 25.7186 14.7595 25.7788C14.645 25.8389 14.5578 25.9405 14.5157 26.0628C13.0216 29.5282 11.978 33.7563 8.50362 34.4498C7.43144 34.6954 6.30654 34.5433 5.33814 34.0216C4.80507 33.6821 4.38545 33.1912 4.13299 32.6118C3.88053 32.0323 3.80671 31.3908 3.92098 30.7692ZM1.58728 28.5827H3.43261C2.79371 30.4068 2.51608 32.4361 3.75038 33.9793C5.40504 36.0442 8.86934 35.9863 10.8864 34.5234C12.0788 33.5283 13.0091 32.2562 13.5958 30.8182C13.8188 30.3722 13.9303 30.0689 13.9303 30.0689C13.9303 30.0689 13.9158 30.2552 13.9303 30.8104C13.8143 32.4076 14.3039 33.99 15.3018 35.2425C15.9344 35.8636 16.7143 36.314 17.5685 36.5515C18.4226 36.789 19.323 36.8059 20.1855 36.6006C20.9055 36.3563 21.5657 35.9626 22.123 35.4454C22.6802 34.9281 23.1219 34.2989 23.419 33.599C24.167 32.2235 24.734 30.757 25.106 29.236C25.3792 31.0619 26.1378 32.781 27.3025 34.2134C27.8483 34.7287 28.5078 35.1082 29.2276 35.3212C29.9473 35.5342 30.7071 35.5747 31.4454 35.4394C32.1838 35.3041 32.8798 34.9968 33.4773 34.5425C34.0748 34.0881 34.5569 33.4994 34.8845 32.8241C35.3662 31.4627 35.5881 30.021 35.5379 28.5771H37.8883C37.9028 35.7766 37.9184 42.7833 37.924 44.9408C37.0625 43.459 36.0418 42.0756 34.8801 40.8153C30.0688 35.7086 24.7726 35.751 19.1084 39.8453C17.9612 40.5615 16.9333 41.4532 16.0622 42.4878C15.5425 43.2461 15.3232 44.1705 15.4468 45.0814C15.5705 45.9924 16.0282 46.8249 16.7312 47.4172C14.848 47.3983 10.8908 47.4061 1.58728 47.3983V28.5827Z" fill="black"/>
<path d="M156.066 103.678C155.044 106.537 157.164 109.566 160.676 110.002C162.738 110.264 164.817 110.395 166.896 110.394C167.24 110.394 167.354 110.23 167.506 109.279C167.841 107.171 168.366 101.176 171.997 84.3852C172.023 83.9526 171.774 83.7586 171.51 83.7441C168.144 83.384 164.183 82.6012 161.245 84.79C160.595 85.1739 160.082 85.7535 159.78 86.4461C159.478 87.1387 159.403 87.9088 159.565 88.6468C160.088 89.9378 161.096 90.9725 162.373 91.529C162.65 91.6773 162.939 91.8044 163.236 91.9081C162.928 91.9029 162.62 91.9167 162.313 91.9494C160.859 91.9985 159.46 92.5181 158.326 93.4301C157.878 93.9361 157.56 94.5445 157.402 95.2018C157.245 95.859 157.251 96.5447 157.421 97.1988C157.634 97.843 157.984 98.4331 158.448 98.9282C158.913 99.4221 159.479 99.809 160.108 100.062C160.392 100.208 160.688 100.33 160.981 100.455C158.839 100.687 156.821 101.56 156.066 103.678ZM159.844 101.715C161.662 101.294 163.555 101.32 165.362 101.789C165.992 101.945 166.268 100.959 165.631 100.814C164.164 100.497 162.724 100.065 161.324 99.5225C159.334 98.6728 157.996 97.6827 158.374 95.562C158.535 93.7914 160.444 93.148 162.204 92.9741C164.026 92.7957 165.856 93.0142 167.681 92.9741C167.815 92.9741 167.944 92.9208 168.039 92.826C168.133 92.7311 168.187 92.6025 168.187 92.4684C168.187 92.3343 168.133 92.2057 168.039 92.1109C167.944 92.016 167.815 91.9628 167.681 91.9628C166.234 91.8572 164.815 91.5121 163.481 90.9414C159.913 89.4172 159.72 87.1738 161.799 85.6351C162.992 84.8022 164.411 84.353 165.866 84.3473C167.551 84.3382 169.234 84.4537 170.902 84.693C169.202 92.6039 167.536 101.418 166.467 109.367C162.147 109.192 160.435 109.255 158.638 108.245C156.088 106.689 155.971 102.758 159.844 101.71V101.715Z" fill="black"/>
<path d="M176.088 75.0717C172.385 99.44 172.946 95.6992 169.219 120.118C168.98 120.978 169.035 121.893 169.375 122.719C169.686 123.316 170.207 123.778 170.836 124.017C171.466 124.255 172.162 124.253 172.791 124.011L192.33 126.568C192.441 126.568 192.548 126.531 192.636 126.464C192.724 126.397 192.788 126.303 192.817 126.197C192.886 125.751 193.86 119.507 193.993 118.639C195.93 122.38 199.378 121.873 200.288 119.643C201.274 117.36 199.803 115.243 198.219 113.691C197.225 112.72 196.222 111.76 195.209 110.809L200.582 76.2948C200.62 76.0529 200.523 75.7117 200.229 75.6727C198.296 75.4106 196.36 75.1508 194.421 74.8922C195.372 72.5127 196.122 69.9605 195.346 67.4417C195.099 66.4837 194.607 65.6065 193.919 64.8961C193.23 64.1857 192.369 63.6666 191.419 63.3898C189.054 62.849 186.763 64.1302 184.952 65.5284C182.176 67.7048 179.65 70.1831 177.421 72.9175C177.043 73.1439 176.725 73.4576 176.493 73.8324C176.261 74.2072 176.122 74.6322 176.088 75.0717ZM170.647 122.733C170.371 122.446 170.181 122.088 170.098 121.7C170.014 121.311 170.04 120.906 170.173 120.531C172.552 104.91 172.393 105.785 172.505 105.619C173.047 104.685 172.743 105.021 177.341 96.5767C176.574 101.26 173.687 120.631 173.596 121.342C173.603 121.601 173.554 121.858 173.452 122.096C173.35 122.334 173.198 122.546 173.005 122.719C172.812 122.892 172.584 123.021 172.337 123.096C172.089 123.172 171.828 123.193 171.572 123.157C171.229 123.109 170.907 122.962 170.647 122.733ZM181.581 74.1719L193.01 75.7106C188.336 86.3163 182.942 96.5897 176.865 106.459C177.853 99.9986 178.807 93.7479 178.805 93.7368C178.864 93.6253 181.655 76.8445 181.81 75.7407C181.882 75.2066 181.803 74.6631 181.581 74.1719ZM196.211 113.175C197.643 114.535 199.796 116.174 199.584 118.395C199.573 118.802 199.444 119.197 199.214 119.533C198.984 119.869 198.663 120.132 198.287 120.29C197.78 120.398 197.253 120.354 196.77 120.166C196.287 119.977 195.87 119.652 195.569 119.23C194.941 118.389 194.444 117.458 194.094 116.469C192.998 113.947 192.117 111.336 191.461 108.664L196.211 113.175ZM199.524 76.5903L194.327 109.967L191.041 106.867C190.979 106.808 190.903 106.765 190.82 106.743C190.737 106.721 190.65 106.72 190.566 106.741C190.483 106.762 190.406 106.803 190.343 106.861C190.28 106.92 190.233 106.993 190.206 107.074C190.169 107.183 190.168 107.3 190.205 107.409C190.814 110.718 191.831 113.939 193.232 116.998C192.656 120.689 191.947 125.018 191.894 125.494L173.969 123.153C174.462 122.379 174.72 121.479 174.712 120.561C174.712 120.546 175.564 114.999 176.488 108.953C176.521 108.923 176.551 108.888 176.575 108.851C179.349 104.43 181.987 99.9251 184.484 95.3424C188.769 87.4705 192.735 78.9731 194.04 75.8522L199.524 76.5903ZM184.551 67.1574C186.052 65.893 187.784 64.5137 189.809 64.2985C190.747 64.224 191.683 64.4612 192.472 64.9733C193.261 65.4854 193.859 66.2438 194.173 67.1306C195.23 69.6316 194.389 72.2886 193.408 74.7539L180.675 73.0368C180.202 72.7004 179.636 72.521 179.056 72.5239C180.753 70.6024 182.589 68.809 184.551 67.1585V67.1574ZM180.741 76.0774C180.577 77.0497 178.029 92.4121 177.875 93.3487C176.196 96.4008 174.545 99.4675 172.92 102.549L176.949 76.1376C177.037 72.0734 181.606 73.2308 180.735 76.0707L180.741 76.0774Z" fill="black"/>
<path d="M209.583 119.654C208.194 118.3 203.919 113.744 203.026 113.258C202.571 112.9 201.982 113.453 202.229 113.855C203.679 119.074 204.495 125.029 207.255 127.616C207.676 128.076 208.24 128.381 208.855 128.48C209.471 128.58 210.102 128.469 210.647 128.165C211.447 127.551 212.023 126.691 212.288 125.718C212.553 124.745 212.492 123.712 212.114 122.777C211.522 121.555 210.656 120.486 209.583 119.654ZM210.797 126.586C210.665 126.82 210.486 127.025 210.27 127.187C210.055 127.349 209.808 127.464 209.546 127.526C208.999 127.536 208.468 127.34 208.059 126.977C205.698 124.844 204.878 120.132 203.599 115.091C205.016 116.386 206.328 117.779 207.666 119.163C209.722 121.282 211.136 122.009 211.388 124.164C211.497 125.017 211.286 125.879 210.797 126.586Z" fill="black"/>
<path d="M44.6896 93.777L50.3873 97.8668C50.9169 98.247 51.4242 97.3706 50.898 96.9938L45.2003 92.9028C44.6707 92.5282 44.1712 93.4001 44.6896 93.777Z" fill="black"/>
<path d="M91.7237 108.845V95.1161C91.7172 94.9863 91.6612 94.864 91.5672 94.7742C91.4733 94.6844 91.3486 94.634 91.2186 94.6333C91.0885 94.6337 90.9635 94.684 90.8693 94.7738C90.7751 94.8636 90.719 94.9861 90.7124 95.1161V108.845C90.7179 108.942 90.7508 109.035 90.8072 109.113C90.8637 109.192 90.9413 109.252 91.0311 109.288C91.1209 109.324 91.219 109.334 91.3141 109.316C91.4091 109.298 91.497 109.254 91.5676 109.187C91.6615 109.097 91.7174 108.975 91.7237 108.845Z" fill="black"/>
<path d="M135.339 105.036C135.426 105.082 135.525 105.101 135.623 105.092C135.721 105.083 135.814 105.046 135.891 104.985C135.969 104.925 136.027 104.843 136.059 104.75C136.091 104.657 136.095 104.556 136.072 104.461C136.039 104.336 135.96 104.229 135.85 104.162C134.323 103.269 132.894 102.218 131.586 101.027C131.11 100.581 130.393 101.298 130.87 101.742C132.228 103.009 133.728 104.114 135.339 105.036Z" fill="black"/>
<path d="M123.145 170.721C123.017 170.729 122.896 170.786 122.808 170.88C122.72 170.974 122.671 171.098 122.671 171.227C122.671 171.356 122.72 171.48 122.808 171.574C122.896 171.668 123.017 171.725 123.145 171.733H134.618C134.747 171.725 134.867 171.668 134.955 171.574C135.043 171.48 135.092 171.356 135.092 171.227C135.092 171.098 135.043 170.974 134.955 170.88C134.867 170.786 134.747 170.729 134.618 170.721H123.145Z" fill="black"/>
</svg>
