<svg width="42" height="42" viewBox="0 0 42 42" fill="none" xmlns="http://www.w3.org/2000/svg">
<rect width="42" height="42" rx="21" fill="white"/>
<path d="M14.7822 30.7374L16.894 34.7263L25.3409 35L27.4526 30.7374C26.7357 30.1117 24.4571 28.8604 21.0783 28.8604C17.6995 28.8604 15.4731 30.1117 14.7822 30.7374Z" fill="#0EB89A"/>
<path d="M30.7823 41.969H11.3716C11.3711 40.1611 11.8756 38.389 12.8283 36.8525C13.781 35.3159 15.1439 34.076 16.7635 33.2726C16.8418 33.2335 16.92 33.1944 16.9982 33.16C17.7859 32.7947 18.6194 32.5374 19.4759 32.3951C20.496 32.2267 21.5362 32.2201 22.5583 32.3755C23.4524 32.5122 24.3228 32.7739 25.144 33.1529C25.2597 33.2051 25.3744 33.2609 25.4881 33.3203C27.082 34.1339 28.42 35.3722 29.3542 36.8985C30.2885 38.4247 30.7827 40.1795 30.7823 41.969Z" fill="#0EB89A"/>
<path d="M18.5365 31.2067C19.0684 31.9576 19.3578 32.5624 19.436 32.771H22.6427C22.8513 32.5103 23.3701 31.8168 23.7768 31.1285C24.1835 30.4402 24.9369 29.7989 25.2628 29.5643H16.855C17.1939 29.7989 18.0047 30.4559 18.5365 31.2067Z" fill="#0C7973"/>
<path d="M21.0155 26.691C21.2181 26.6911 21.4186 26.7312 21.6057 26.8088C21.7928 26.8865 21.9628 27.0003 22.1059 27.1437C22.249 27.287 22.3624 27.4572 22.4397 27.6445C22.517 27.8317 22.5566 28.0324 22.5563 28.235V32.5906C22.5561 32.9994 22.3936 33.3914 22.1045 33.6804C21.8155 33.9695 21.4235 34.1319 21.0147 34.1322C20.6059 34.1319 20.2139 33.9695 19.9249 33.6804C19.6358 33.3914 19.4734 32.9994 19.4731 32.5906V28.235C19.4728 28.0322 19.5125 27.8315 19.5899 27.6441C19.6673 27.4568 19.7808 27.2865 19.9241 27.1431C20.0674 26.9997 20.2375 26.886 20.4248 26.8084C20.6121 26.7308 20.8128 26.6909 21.0155 26.691Z" fill="#703F3A"/>
<path d="M21.0442 30.7112C26.2622 30.7112 30.4923 25.8659 30.4923 19.8889C30.4923 13.912 26.2622 9.06671 21.0442 9.06671C15.8262 9.06671 11.5962 13.912 11.5962 19.8889C11.5962 25.8659 15.8262 30.7112 21.0442 30.7112Z" fill="#915A51"/>
<path d="M16.7223 23.2732C17.2959 23.2732 17.7609 22.8082 17.7609 22.2345C17.7609 21.6609 17.2959 21.1959 16.7223 21.1959C16.1486 21.1959 15.6836 21.6609 15.6836 22.2345C15.6836 22.8082 16.1486 23.2732 16.7223 23.2732Z" fill="#151928"/>
<path d="M25.5011 23.2732C26.0747 23.2732 26.5397 22.8082 26.5397 22.2345C26.5397 21.6609 26.0747 21.1959 25.5011 21.1959C24.9274 21.1959 24.4624 21.6609 24.4624 22.2345C24.4624 22.8082 24.9274 23.2732 25.5011 23.2732Z" fill="#151928"/>
<path d="M21.0809 25.1495C20.741 25.1578 20.4039 25.0868 20.0962 24.9422C20.0723 24.9295 20.054 24.9084 20.0449 24.8829C20.0358 24.8575 20.0365 24.8296 20.0469 24.8046C20.0599 24.7806 20.0813 24.7623 20.107 24.7532C20.1327 24.7441 20.1609 24.7449 20.1861 24.7553C20.7126 24.9824 21.3053 25.0034 21.8466 24.814C21.8717 24.8056 21.8991 24.8071 21.9232 24.8182C21.9472 24.8292 21.9663 24.8489 21.9764 24.8734C21.9848 24.8984 21.9832 24.9257 21.972 24.9496C21.9608 24.9735 21.9408 24.9922 21.9162 25.0017C21.6494 25.1026 21.3661 25.1528 21.0809 25.1495Z" fill="#151928"/>
<path d="M15.9388 18.8839C16.6028 18.7063 17.2684 18.6625 17.8159 18.7814C17.8652 18.793 17.9084 18.8224 17.9373 18.864C17.9662 18.9056 17.9786 18.9564 17.9723 19.0067C17.96 19.0561 17.9301 19.0993 17.8882 19.1281C17.8462 19.1569 17.7952 19.1694 17.7447 19.1631C17.2566 19.0653 16.6497 19.0943 16.0381 19.2577C15.564 19.3736 15.1161 19.578 14.7179 19.86C14.6768 19.8872 14.627 19.8978 14.5784 19.8895C14.5298 19.8812 14.4863 19.8547 14.4566 19.8154C14.4285 19.7746 14.4173 19.7244 14.4255 19.6755C14.4336 19.6266 14.4605 19.5828 14.5004 19.5534C14.9341 19.2427 15.4219 19.0156 15.9388 18.8839Z" fill="#151928"/>
<path d="M25.8334 18.8159C26.4966 18.9981 27.0895 19.2953 27.5048 19.6762C27.5417 19.7109 27.5643 19.7581 27.5682 19.8086C27.5721 19.8591 27.557 19.9092 27.5259 19.9491C27.4905 19.9858 27.4429 20.0081 27.3921 20.0118C27.3414 20.0156 27.291 20.0005 27.2506 19.9695C26.8791 19.6379 26.3402 19.3555 25.7309 19.1874C25.2635 19.0479 24.7739 18.9978 24.2879 19.0395C24.2385 19.0421 24.19 19.0258 24.1522 18.9941C24.1143 18.9623 24.0898 18.9173 24.0838 18.8683C24.0811 18.8192 24.0974 18.7709 24.1293 18.7335C24.1611 18.6961 24.2062 18.6724 24.2551 18.6672C24.7858 18.6177 25.3212 18.6681 25.8334 18.8159Z" fill="#151928"/>
<path d="M31.8483 23.8265C32.3235 22.582 31.938 21.2788 30.9873 20.9158C30.0366 20.5527 28.8806 21.2673 28.4054 22.5118C27.9302 23.7563 28.3156 25.0594 29.2664 25.4225C30.2171 25.7855 31.3731 25.071 31.8483 23.8265Z" fill="#915A51"/>
<path d="M12.9903 25.3502C13.9245 24.9465 14.2535 23.628 13.7251 22.4051C13.1966 21.1822 12.011 20.5182 11.0768 20.9218C10.1426 21.3255 9.81362 22.6441 10.342 23.867C10.8705 25.0898 12.0561 25.7539 12.9903 25.3502Z" fill="#915A51"/>
<path d="M31.03 23.6563C31.3446 23.1113 31.3141 22.5045 30.9617 22.301C30.6093 22.0976 30.0685 22.3745 29.7539 22.9196C29.4392 23.4646 29.4697 24.0714 29.8221 24.2748C30.1745 24.4783 30.7153 24.2014 31.03 23.6563Z" fill="#703F3A"/>
<path d="M29.6382 24.4198C30.0546 24.4198 30.3922 24.0822 30.3922 23.6658C30.3922 23.2494 30.0546 22.9119 29.6382 22.9119C29.2218 22.9119 28.8843 23.2494 28.8843 23.6658C28.8843 24.0822 29.2218 24.4198 29.6382 24.4198Z" fill="#915A51"/>
<path d="M12.2766 24.2749C12.629 24.0714 12.6596 23.4647 12.3449 22.9196C12.0302 22.3746 11.4895 22.0977 11.1371 22.3011C10.7847 22.5046 10.7541 23.1113 11.0688 23.6564C11.3835 24.2014 11.9242 24.4783 12.2766 24.2749Z" fill="#703F3A"/>
<path d="M12.4615 24.4198C12.8779 24.4198 13.2155 24.0822 13.2155 23.6658C13.2155 23.2494 12.8779 22.9119 12.4615 22.9119C12.0451 22.9119 11.7075 23.2494 11.7075 23.6658C11.7075 24.0822 12.0451 24.4198 12.4615 24.4198Z" fill="#915A51"/>
<path d="M21.1566 15.3296C17.4963 15.3296 14.5738 15.6424 13.5701 15.7989L13.2963 18.5363L11.6147 20.7653C11.1976 16.8678 12.522 9.05696 21.1566 8.99439C29.7913 8.93182 30.9332 16.8156 30.4248 20.7653L28.5868 18.5363L29.1734 16.0726C28.0263 15.8249 24.817 15.3296 21.1566 15.3296Z" fill="url(#paint0_linear_228_2454)"/>
<path d="M15.2515 12.2402L16.8939 16.1508H15.9163L15.2515 12.2402Z" fill="#915A51"/>
<path d="M20.8434 39.0279L19.4355 32.7709H22.6031L20.8434 39.0279Z" fill="#F3F4F6"/>
<rect x="20.6479" y="39.028" width="0.469275" height="1.09497" fill="#151928"/>
<defs>
<linearGradient id="paint0_linear_228_2454" x1="21.037" y1="8.99402" x2="21.037" y2="20.7653" gradientUnits="userSpaceOnUse">
<stop offset="0.505208" stop-color="#151A28"/>
<stop offset="1" stop-color="#915A51"/>
</linearGradient>
</defs>
</svg>
