<svg width="20" height="21" viewBox="0 0 20 21" fill="none" xmlns="http://www.w3.org/2000/svg">
<path fill-rule="evenodd" clip-rule="evenodd" d="M5.31063 3.89405L5.3125 3.89404H14.6875L14.6894 3.89405C15.2685 3.89578 15.8234 4.1266 16.2329 4.53611C16.6424 4.94562 16.8733 5.50054 16.875 6.07968L16.875 6.08154V10.144C16.875 10.4892 16.5952 10.769 16.25 10.769H3.75C3.40482 10.769 3.125 10.4892 3.125 10.144V6.08154L3.125 6.07968C3.12673 5.50054 3.35756 4.94562 3.76707 4.53611C4.17658 4.1266 4.7315 3.89578 5.31063 3.89405ZM5.31355 5.14404C5.06494 5.145 4.82677 5.24418 4.65095 5.42C4.47514 5.59581 4.37596 5.83398 4.375 6.08259V9.51904H15.625V6.0827C15.6241 5.83405 15.5249 5.59583 15.349 5.42C15.1732 5.24418 14.9351 5.145 14.6864 5.14404H5.31355Z" fill="#1E1E1E"/>
<path fill-rule="evenodd" clip-rule="evenodd" d="M4.37315 9.51905L4.375 9.51904H15.625L15.6268 9.51905C16.4544 9.52149 17.2474 9.85132 17.8325 10.4365C18.4177 11.0217 18.7476 11.8146 18.75 12.6422L18.75 12.644V17.019C18.75 17.3642 18.4702 17.644 18.125 17.644C17.7798 17.644 17.5 17.3642 17.5 17.019V12.6451C17.4983 12.1481 17.3001 11.6719 16.9487 11.3204C16.5972 10.9689 16.121 10.7707 15.624 10.769H4.37599C3.87898 10.7707 3.4028 10.9689 3.05134 11.3204C2.69988 11.6718 2.50169 12.148 2.5 12.645V17.019C2.5 17.3642 2.22018 17.644 1.875 17.644C1.52982 17.644 1.25 17.3642 1.25 17.019V12.644L1.25 12.6422C1.25245 11.8146 1.58228 11.0217 2.16745 10.4365C2.75263 9.85132 3.54559 9.52149 4.37315 9.51905Z" fill="#1E1E1E"/>
<path fill-rule="evenodd" clip-rule="evenodd" d="M2.81069 15.144L2.8125 15.144H17.1875L17.1893 15.144C17.6029 15.1452 17.9991 15.3101 18.2916 15.6025C18.584 15.8949 18.7488 16.2912 18.75 16.7047L18.75 16.7065V17.019C18.75 17.3642 18.4702 17.644 18.125 17.644C17.7798 17.644 17.5 17.3642 17.5 17.019V16.7077C17.4996 16.6247 17.4664 16.5451 17.4077 16.4864C17.3489 16.4276 17.2694 16.3945 17.1864 16.394H2.81365C2.7306 16.3945 2.65106 16.4276 2.59233 16.4864C2.53359 16.5451 2.50042 16.6246 2.5 16.7077V17.019C2.5 17.3642 2.22018 17.644 1.875 17.644C1.52982 17.644 1.25 17.3642 1.25 17.019V16.7065L1.25 16.7047C1.2512 16.2912 1.41602 15.8949 1.70844 15.6025C2.00087 15.3101 2.39714 15.1452 2.81069 15.144Z" fill="#1E1E1E"/>
<path fill-rule="evenodd" clip-rule="evenodd" d="M5.62325 7.64405L5.625 7.64404H8.75L8.75175 7.64405C9.24814 7.64544 9.7238 7.84324 10.0748 8.19424C10.4258 8.54524 10.6236 9.0209 10.625 9.51729L10.625 9.51904V10.144C10.625 10.4892 10.3452 10.769 10 10.769C9.65482 10.769 9.375 10.4892 9.375 10.144V9.52008C9.37435 9.35426 9.30819 9.1954 9.19092 9.07813C9.07365 8.96086 8.9148 8.8947 8.74898 8.89404H5.62602C5.4602 8.8947 5.30135 8.96086 5.18408 9.07813C5.06682 9.19539 5.00066 9.35425 5 9.52007V10.144C5 10.4892 4.72018 10.769 4.375 10.769C4.02982 10.769 3.75 10.4892 3.75 10.144V9.51904L3.75 9.51729C3.75139 9.0209 3.9492 8.54524 4.3002 8.19424C4.6512 7.84324 5.12686 7.64544 5.62325 7.64405Z" fill="#1E1E1E"/>
<path fill-rule="evenodd" clip-rule="evenodd" d="M11.2482 7.64405L11.25 7.64404H14.375L14.3767 7.64405C14.8731 7.64544 15.3488 7.84324 15.6998 8.19424C16.0508 8.54524 16.2486 9.0209 16.25 9.51729L16.25 9.51904V10.144C16.25 10.4892 15.9702 10.769 15.625 10.769C15.2798 10.769 15 10.4892 15 10.144V9.52008C14.9993 9.35426 14.9332 9.1954 14.8159 9.07813C14.6987 8.96086 14.5398 8.8947 14.374 8.89404H11.251C11.0852 8.8947 10.9263 8.96086 10.8091 9.07813C10.6918 9.19539 10.6257 9.35425 10.625 9.52007V10.144C10.625 10.4892 10.3452 10.769 10 10.769C9.65482 10.769 9.375 10.4892 9.375 10.144V9.51904L9.375 9.51729C9.37639 9.0209 9.5742 8.54524 9.9252 8.19424C10.2762 7.84324 10.7519 7.64544 11.2482 7.64405Z" fill="#1E1E1E"/>
</svg>
