<svg width="25" height="21" viewBox="0 0 25 21" fill="none" xmlns="http://www.w3.org/2000/svg">
<path d="M1.61523 3.54956C2.94273 2.99456 4.84623 2.39606 6.69723 2.21006C8.69223 2.00906 10.3842 2.30456 11.3652 3.33806V17.9571C9.96273 17.1621 8.18524 17.0526 6.54573 17.2176C4.77573 17.3976 2.99073 17.9091 1.61523 18.4341V3.54956ZM12.8652 3.33806C13.8462 2.30456 15.5382 2.00906 17.5332 2.21006C19.3842 2.39606 21.2877 2.99456 22.6152 3.54956V18.4341C21.2382 17.9091 19.4547 17.3961 17.6847 17.2191C16.0437 17.0526 14.2677 17.1606 12.8652 17.9571V3.33806ZM12.1152 1.98206C10.6377 0.71156 8.49573 0.52256 6.54573 0.71756C4.27473 0.94706 1.98273 1.72556 0.554734 2.37506C0.423708 2.43465 0.312597 2.53069 0.234666 2.65171C0.156734 2.77273 0.115274 2.91362 0.115234 3.05756V19.5576C0.115269 19.6831 0.14679 19.8065 0.20691 19.9167C0.26703 20.0268 0.353827 20.1201 0.459351 20.188C0.564874 20.2559 0.685751 20.2963 0.810909 20.3054C0.936067 20.3145 1.06151 20.292 1.17573 20.2401C2.49873 19.6401 4.63023 18.9186 6.69573 18.7101C8.80923 18.4971 10.5807 18.8406 11.5302 20.0256C11.6005 20.1132 11.6896 20.1839 11.7908 20.2324C11.8921 20.281 12.0029 20.3062 12.1152 20.3062C12.2275 20.3062 12.3384 20.281 12.4397 20.2324C12.5409 20.1839 12.63 20.1132 12.7002 20.0256C13.6497 18.8406 15.4212 18.4971 17.5332 18.7101C19.6002 18.9186 21.7332 19.6401 23.0547 20.2401C23.169 20.292 23.2944 20.3145 23.4196 20.3054C23.5447 20.2963 23.6656 20.2559 23.7711 20.188C23.8766 20.1201 23.9634 20.0268 24.0236 19.9167C24.0837 19.8065 24.1152 19.6831 24.1152 19.5576V3.05756C24.1152 2.91362 24.0737 2.77273 23.9958 2.65171C23.9179 2.53069 23.8068 2.43465 23.6757 2.37506C22.2477 1.72556 19.9557 0.94706 17.6847 0.71756C15.7347 0.52106 13.5927 0.71156 12.1152 1.98206Z" fill="#F3F4F6"/>
</svg>
