<svg width="20" height="21" viewBox="0 0 20 21" fill="none" xmlns="http://www.w3.org/2000/svg">
<path d="M18.7499 9.51901C18.7487 8.35907 18.2873 7.247 17.4671 6.42679C16.6469 5.60659 15.5349 5.14525 14.3749 5.14401C14.2366 5.14401 14.0984 5.15183 13.9616 5.16433C13.6089 4.41142 13.0489 3.77463 12.3472 3.32853C11.6456 2.88243 10.8314 2.64551 9.99992 2.64551C9.16847 2.64551 8.35424 2.88243 7.6526 3.32853C6.95096 3.77463 6.39096 4.41142 6.0382 5.16433C5.90148 5.15183 5.7632 5.14401 5.62492 5.14401C4.63178 5.14425 3.66827 5.48239 2.89279 6.10283C2.1173 6.72328 1.57599 7.58911 1.35784 8.55799C1.13968 9.52687 1.25767 10.5412 1.69239 11.4341C2.12712 12.327 2.85272 13.0455 3.74992 13.4714V17.019C3.74992 17.3505 3.88162 17.6685 4.11604 17.9029C4.35046 18.1373 4.6684 18.269 4.99992 18.269H14.9999C15.3314 18.269 15.6494 18.1373 15.8838 17.9029C16.1182 17.6685 16.2499 17.3505 16.2499 17.019V13.4714C16.9973 13.1159 17.6288 12.556 18.0712 11.8566C18.5137 11.1571 18.749 10.3467 18.7499 9.51901ZM14.9999 17.019H4.99992V13.8487C5.20689 13.8789 5.41577 13.894 5.62492 13.894H14.3749C14.5841 13.894 14.793 13.8789 14.9999 13.8487V17.019ZM14.3749 12.644H13.3007L13.7312 10.9206C13.7682 10.7609 13.741 10.5931 13.6555 10.4533C13.57 10.3134 13.4329 10.2128 13.2739 10.1731C13.1149 10.1333 12.9466 10.1576 12.8054 10.2407C12.6641 10.3239 12.5611 10.4591 12.5187 10.6175L12.0116 12.644H10.6249V10.769C10.6249 10.6033 10.5591 10.4443 10.4419 10.3271C10.3247 10.2099 10.1657 10.144 9.99992 10.144C9.83416 10.144 9.67519 10.2099 9.55798 10.3271C9.44077 10.4443 9.37492 10.6033 9.37492 10.769V12.644H7.9882L7.48117 10.6175C7.46243 10.5366 7.42778 10.4603 7.37924 10.393C7.3307 10.3257 7.26925 10.2688 7.19846 10.2255C7.12768 10.1822 7.04898 10.1534 6.96696 10.1408C6.88494 10.1283 6.80124 10.1322 6.72074 10.1523C6.64024 10.1724 6.56455 10.2084 6.49809 10.258C6.43163 10.3077 6.37573 10.3702 6.33365 10.4417C6.29157 10.5132 6.26416 10.5924 6.253 10.6746C6.24184 10.7568 6.24717 10.8404 6.26867 10.9206L6.69914 12.644H5.62492C4.79612 12.644 4.00126 12.3148 3.41521 11.7287C2.82916 11.1427 2.49992 10.3478 2.49992 9.51901C2.49992 8.69021 2.82916 7.89536 3.41521 7.30931C4.00126 6.72325 4.79612 6.39401 5.62492 6.39401H5.67023C5.64 6.60097 5.62485 6.80986 5.62492 7.01901C5.62492 7.18477 5.69077 7.34375 5.80798 7.46096C5.92519 7.57817 6.08416 7.64401 6.24992 7.64401C6.41568 7.64401 6.57465 7.57817 6.69186 7.46096C6.80907 7.34375 6.87492 7.18477 6.87492 7.01901C6.87492 6.19021 7.20416 5.39536 7.79021 4.80931C8.37626 4.22325 9.17112 3.89401 9.99992 3.89401C10.8287 3.89401 11.6236 4.22325 12.2096 4.80931C12.7957 5.39536 13.1249 6.19021 13.1249 7.01901C13.1249 7.18477 13.1908 7.34375 13.308 7.46096C13.4252 7.57817 13.5842 7.64401 13.7499 7.64401C13.9157 7.64401 14.0747 7.57817 14.1919 7.46096C14.3091 7.34375 14.3749 7.18477 14.3749 7.01901C14.375 6.80986 14.3598 6.60097 14.3296 6.39401H14.3749C15.2037 6.39401 15.9986 6.72325 16.5846 7.30931C17.1707 7.89536 17.4999 8.69021 17.4999 9.51901C17.4999 10.3478 17.1707 11.1427 16.5846 11.7287C15.9986 12.3148 15.2037 12.644 14.3749 12.644Z" fill="#1E1E1E" stroke="black" stroke-width="0.1"/>
</svg>
