<svg width="20" height="21" viewBox="0 0 20 21" fill="none" xmlns="http://www.w3.org/2000/svg">
<g clip-path="url(#clip0_303_6255)">
<path d="M2.5 12.4357C3.19167 12.9707 4.23083 13.2832 5.41667 13.2691C6.6025 13.2832 7.64167 12.9707 8.33333 12.4357C9.025 11.9007 10.0642 11.5882 11.25 11.6024C12.4358 11.5882 13.475 11.9007 14.1667 12.4357" stroke="#1E1E1E" stroke-width="1.5" stroke-linecap="round" stroke-linejoin="round"/>
<path d="M6.66678 3.26904C6.40304 3.45835 6.18934 3.70902 6.04415 3.9994C5.89896 4.28977 5.82665 4.61113 5.83345 4.93571C5.82665 5.26029 5.89896 5.58165 6.04415 5.87202C6.18934 6.1624 6.40304 6.41307 6.66678 6.60238" stroke="#1E1E1E" stroke-width="1.5" stroke-linecap="round" stroke-linejoin="round"/>
<path d="M10 3.26904C9.73629 3.45835 9.52259 3.70902 9.37741 3.9994C9.23222 4.28977 9.1599 4.61113 9.1667 4.93571C9.1599 5.26029 9.23222 5.58165 9.37741 5.87202C9.52259 6.1624 9.73629 6.41307 10 6.60238" stroke="#1E1E1E" stroke-width="1.5" stroke-linecap="round" stroke-linejoin="round"/>
<path d="M2.5 9.10236H14.1667V13.269C14.1667 14.5951 13.6399 15.8669 12.7022 16.8046C11.7645 17.7422 10.4927 18.269 9.16667 18.269H7.5C6.17392 18.269 4.90215 17.7422 3.96447 16.8046C3.02678 15.8669 2.5 14.5951 2.5 13.269V9.10236Z" stroke="#1E1E1E" stroke-width="1.5" stroke-linecap="round" stroke-linejoin="round"/>
<path d="M13.9551 14.7074C14.3272 14.8782 14.7357 14.9551 15.1445 14.9311C15.5533 14.9071 15.9499 14.7831 16.2996 14.5699C16.6492 14.3567 16.9411 14.0609 17.1497 13.7084C17.3582 13.356 17.477 12.9577 17.4955 12.5487C17.5141 12.1396 17.4319 11.7322 17.2561 11.3623C17.0803 10.9925 16.8164 10.6714 16.4875 10.4275C16.1586 10.1835 15.7748 10.0241 15.3698 9.96316C14.9649 9.90226 14.5512 9.94178 14.1651 10.0782" stroke="#1E1E1E" stroke-width="1.5" stroke-linecap="round" stroke-linejoin="round"/>
</g>
<defs>
<clipPath id="clip0_303_6255">
<rect width="20" height="20" fill="white" transform="translate(0 0.769043)"/>
</clipPath>
</defs>
</svg>
