<svg width="20" height="21" viewBox="0 0 20 21" fill="none" xmlns="http://www.w3.org/2000/svg">
<path d="M11.6667 6.60238C12.5872 6.60238 13.3333 5.85618 13.3333 4.93571C13.3333 4.01523 12.5872 3.26904 11.6667 3.26904C10.7462 3.26904 10 4.01523 10 4.93571C10 5.85618 10.7462 6.60238 11.6667 6.60238Z" stroke="#1E1E1E" stroke-width="1.4" stroke-linecap="round" stroke-linejoin="round"/>
<path d="M15 18.269C16.3807 18.269 17.5 17.1498 17.5 15.769C17.5 14.3883 16.3807 13.269 15 13.269C13.6192 13.269 12.5 14.3883 12.5 15.769C12.5 17.1498 13.6192 18.269 15 18.269Z" stroke="#1E1E1E" stroke-width="1.4" stroke-linecap="round" stroke-linejoin="round"/>
<path d="M5 18.269C6.38071 18.269 7.5 17.1498 7.5 15.769C7.5 14.3883 6.38071 13.269 5 13.269C3.61929 13.269 2.5 14.3883 2.5 15.769C2.5 17.1498 3.61929 18.269 5 18.269Z" stroke="#1E1E1E" stroke-width="1.4" stroke-linecap="round" stroke-linejoin="round"/>
<path d="M9.58325 15.769L10.8332 12.4357L6.76465 10.769L9.26483 7.85242L11.7648 9.93578H14.6815" stroke="#1E1E1E" stroke-width="1.4" stroke-linecap="round" stroke-linejoin="round"/>
</svg>
