<svg width="21" height="20" viewBox="0 0 21 20" fill="none" xmlns="http://www.w3.org/2000/svg">
<path d="M10.5 20C9.13333 20 7.84167 19.7375 6.625 19.2125C5.40833 18.6875 4.34583 17.9708 3.4375 17.0625C2.52917 16.1542 1.8125 15.0917 1.2875 13.875C0.7625 12.6583 0.5 11.3667 0.5 10C0.5 8.61667 0.7625 7.32083 1.2875 6.1125C1.8125 4.90417 2.52917 3.84583 3.4375 2.9375C4.34583 2.02917 5.40833 1.3125 6.625 0.7875C7.84167 0.2625 9.13333 0 10.5 0C11.8833 0 13.1792 0.2625 14.3875 0.7875C15.5958 1.3125 16.6542 2.02917 17.5625 2.9375C18.4708 3.84583 19.1875 4.90417 19.7125 6.1125C20.2375 7.32083 20.5 8.61667 20.5 10C20.5 11.3667 20.2375 12.6583 19.7125 13.875C19.1875 15.0917 18.4708 16.1542 17.5625 17.0625C16.6542 17.9708 15.5958 18.6875 14.3875 19.2125C13.1792 19.7375 11.8833 20 10.5 20ZM10.5 17.95C10.9333 17.35 11.3083 16.725 11.625 16.075C11.9417 15.425 12.2 14.7333 12.4 14H8.6C8.8 14.7333 9.05833 15.425 9.375 16.075C9.69167 16.725 10.0667 17.35 10.5 17.95ZM7.9 17.55C7.6 17 7.3375 16.4292 7.1125 15.8375C6.8875 15.2458 6.7 14.6333 6.55 14H3.6C4.08333 14.8333 4.6875 15.5583 5.4125 16.175C6.1375 16.7917 6.96667 17.25 7.9 17.55ZM13.1 17.55C14.0333 17.25 14.8625 16.7917 15.5875 16.175C16.3125 15.5583 16.9167 14.8333 17.4 14H14.45C14.3 14.6333 14.1125 15.2458 13.8875 15.8375C13.6625 16.4292 13.4 17 13.1 17.55ZM2.75 12H6.15C6.1 11.6667 6.0625 11.3375 6.0375 11.0125C6.0125 10.6875 6 10.35 6 10C6 9.65 6.0125 9.3125 6.0375 8.9875C6.0625 8.6625 6.1 8.33333 6.15 8H2.75C2.66667 8.33333 2.60417 8.6625 2.5625 8.9875C2.52083 9.3125 2.5 9.65 2.5 10C2.5 10.35 2.52083 10.6875 2.5625 11.0125C2.60417 11.3375 2.66667 11.6667 2.75 12ZM8.15 12H12.85C12.9 11.6667 12.9375 11.3375 12.9625 11.0125C12.9875 10.6875 13 10.35 13 10C13 9.65 12.9875 9.3125 12.9625 8.9875C12.9375 8.6625 12.9 8.33333 12.85 8H8.15C8.1 8.33333 8.0625 8.6625 8.0375 8.9875C8.0125 9.3125 8 9.65 8 10C8 10.35 8.0125 10.6875 8.0375 11.0125C8.0625 11.3375 8.1 11.6667 8.15 12ZM14.85 12H18.25C18.3333 11.6667 18.3958 11.3375 18.4375 11.0125C18.4792 10.6875 18.5 10.35 18.5 10C18.5 9.65 18.4792 9.3125 18.4375 8.9875C18.3958 8.6625 18.3333 8.33333 18.25 8H14.85C14.9 8.33333 14.9375 8.6625 14.9625 8.9875C14.9875 9.3125 15 9.65 15 10C15 10.35 14.9875 10.6875 14.9625 11.0125C14.9375 11.3375 14.9 11.6667 14.85 12ZM14.45 6H17.4C16.9167 5.16667 16.3125 4.44167 15.5875 3.825C14.8625 3.20833 14.0333 2.75 13.1 2.45C13.4 3 13.6625 3.57083 13.8875 4.1625C14.1125 4.75417 14.3 5.36667 14.45 6ZM8.6 6H12.4C12.2 5.26667 11.9417 4.575 11.625 3.925C11.3083 3.275 10.9333 2.65 10.5 2.05C10.0667 2.65 9.69167 3.275 9.375 3.925C9.05833 4.575 8.8 5.26667 8.6 6ZM3.6 6H6.55C6.7 5.36667 6.8875 4.75417 7.1125 4.1625C7.3375 3.57083 7.6 3 7.9 2.45C6.96667 2.75 6.1375 3.20833 5.4125 3.825C4.6875 4.44167 4.08333 5.16667 3.6 6Z" fill="#F3F3F3"/>
</svg>
