<svg width="20" height="21" viewBox="0 0 20 21" fill="none" xmlns="http://www.w3.org/2000/svg">
<path d="M12.5 6.60238C13.4205 6.60238 14.1667 7.34857 14.1667 8.26904M17.5 8.26904C17.5 11.0305 15.2614 13.269 12.5 13.269C11.9949 13.269 11.5072 13.1941 11.0476 13.0548L9.16667 14.9357H7.5V16.6024H5.83333V18.269H3.33333C2.8731 18.269 2.5 17.8959 2.5 17.4357V15.2809C2.5 15.0599 2.5878 14.8479 2.74408 14.6916L7.71423 9.72148C7.57491 9.26183 7.5 8.77419 7.5 8.26904C7.5 5.50762 9.73858 3.26904 12.5 3.26904C15.2614 3.26904 17.5 5.50762 17.5 8.26904Z" stroke="#1E1E1E" stroke-width="1.66667" stroke-linecap="round" stroke-linejoin="round"/>
</svg>
