<svg width="20" height="21" viewBox="0 0 20 21" fill="none" xmlns="http://www.w3.org/2000/svg">
<g clip-path="url(#clip0_293_2750)">
<path d="M10 18.269C9.01509 18.269 8.03982 18.0751 7.12987 17.6981C6.21993 17.3212 5.39314 16.7688 4.6967 16.0723C4.00026 15.3759 3.44781 14.5491 3.0709 13.6392C2.69399 12.7292 2.5 11.754 2.5 10.769C2.5 9.78413 2.69399 8.80886 3.0709 7.89892C3.44781 6.98898 4.00026 6.16218 4.6967 5.46574C5.39314 4.7693 6.21993 4.21686 7.12987 3.83995C8.03982 3.46304 9.01509 3.26904 10 3.26904C11.9891 3.26904 13.8968 3.97142 15.3033 5.22166C16.7098 6.47191 17.5 8.1676 17.5 9.93571C17.5 10.8198 17.1049 11.6676 16.4016 12.2927C15.6984 12.9179 14.7446 13.269 13.75 13.269H11.6667C11.2949 13.2631 10.9318 13.3816 10.6351 13.6057C10.3384 13.8299 10.1252 14.1468 10.0294 14.5061C9.93362 14.8653 9.9607 15.2463 10.1064 15.5884C10.252 15.9305 10.5079 16.2141 10.8333 16.394C10.9997 16.5476 11.1138 16.7494 11.1596 16.9711C11.2054 17.1928 11.1806 17.4233 11.0886 17.6302C10.9967 17.8371 10.8422 18.01 10.647 18.1245C10.4517 18.2391 10.2255 18.2897 10 18.269" stroke="#1E1E1E" stroke-width="1.66667" stroke-linecap="round" stroke-linejoin="round"/>
<path d="M6.24992 9.93569C6.48004 9.93569 6.66659 9.74914 6.66659 9.51902C6.66659 9.2889 6.48004 9.10236 6.24992 9.10236C6.0198 9.10236 5.83325 9.2889 5.83325 9.51902C5.83325 9.74914 6.0198 9.93569 6.24992 9.93569Z" fill="#1E1E1E" stroke="#1E1E1E" stroke-width="1.66667" stroke-linecap="round" stroke-linejoin="round"/>
<path d="M9.99992 7.43569C10.23 7.43569 10.4166 7.24914 10.4166 7.01902C10.4166 6.7889 10.23 6.60236 9.99992 6.60236C9.7698 6.60236 9.58325 6.7889 9.58325 7.01902C9.58325 7.24914 9.7698 7.43569 9.99992 7.43569Z" fill="#1E1E1E" stroke="#1E1E1E" stroke-width="1.66667" stroke-linecap="round" stroke-linejoin="round"/>
<path d="M13.7499 9.93569C13.98 9.93569 14.1666 9.74914 14.1666 9.51902C14.1666 9.2889 13.98 9.10236 13.7499 9.10236C13.5198 9.10236 13.3333 9.2889 13.3333 9.51902C13.3333 9.74914 13.5198 9.93569 13.7499 9.93569Z" fill="#1E1E1E" stroke="#1E1E1E" stroke-width="1.66667" stroke-linecap="round" stroke-linejoin="round"/>
</g>
<defs>
<clipPath id="clip0_293_2750">
<rect width="20" height="20" fill="white" transform="translate(0 0.769043)"/>
</clipPath>
</defs>
</svg>
