<svg width="18" height="18" viewBox="0 0 18 18" fill="none" xmlns="http://www.w3.org/2000/svg">
<path d="M14.4284 15.4286L9.92843 10.9286C9.57129 11.2143 9.16057 11.4405 8.69629 11.6071C8.232 11.7738 7.73796 11.8571 7.21415 11.8571C5.91653 11.8571 4.81831 11.4077 3.9195 10.5089C3.02069 9.6101 2.57129 8.51189 2.57129 7.21427C2.57129 5.91665 3.02069 4.81844 3.9195 3.91963C4.81831 3.02082 5.91653 2.57141 7.21415 2.57141C8.51177 2.57141 9.60998 3.02082 10.5088 3.91963C11.4076 4.81844 11.857 5.91665 11.857 7.21427C11.857 7.73808 11.7737 8.23213 11.607 8.69641C11.4403 9.1607 11.2141 9.57141 10.9284 9.92855L15.4284 14.4286L14.4284 15.4286ZM7.21415 10.4286C8.107 10.4286 8.86593 10.1161 9.49093 9.49105C10.1159 8.86605 10.4284 8.10713 10.4284 7.21427C10.4284 6.32141 10.1159 5.56248 9.49093 4.93748C8.86593 4.31248 8.107 3.99998 7.21415 3.99998C6.32129 3.99998 5.56236 4.31248 4.93736 4.93748C4.31236 5.56248 3.99986 6.32141 3.99986 7.21427C3.99986 8.10713 4.31236 8.86605 4.93736 9.49105C5.56236 10.1161 6.32129 10.4286 7.21415 10.4286Z" fill="#1E1E1E"/>
</svg>
