<svg width="12" height="21" viewBox="0 0 5 16" fill="none" xmlns="http://www.w3.org/2000/svg">
<path d="M2.5 16C1.95 16 1.47917 15.8042 1.0875 15.4125C0.695833 15.0208 0.5 14.55 0.5 14C0.5 13.45 0.695833 12.9792 1.0875 12.5875C1.47917 12.1958 1.95 12 2.5 12C3.05 12 3.52083 12.1958 3.9125 12.5875C4.30417 12.9792 4.5 13.45 4.5 14C4.5 14.55 4.30417 15.0208 3.9125 15.4125C3.52083 15.8042 3.05 16 2.5 16ZM2.5 10C1.95 10 1.47917 9.80417 1.0875 9.4125C0.695833 9.02083 0.5 8.55 0.5 8C0.5 7.45 0.695833 6.97917 1.0875 6.5875C1.47917 6.19583 1.95 6 2.5 6C3.05 6 3.52083 6.19583 3.9125 6.5875C4.30417 6.97917 4.5 7.45 4.5 8C4.5 8.55 4.30417 9.02083 3.9125 9.4125C3.52083 9.80417 3.05 10 2.5 10ZM2.5 4C1.95 4 1.47917 3.80417 1.0875 3.4125C0.695833 3.02083 0.5 2.55 0.5 2C0.5 1.45 0.695833 0.979167 1.0875 0.5875C1.47917 0.195833 1.95 0 2.5 0C3.05 0 3.52083 0.195833 3.9125 0.5875C4.30417 0.979167 4.5 1.45 4.5 2C4.5 2.55 4.30417 3.02083 3.9125 3.4125C3.52083 3.80417 3.05 4 2.5 4Z" fill="#F5F5F5"/>
</svg>
