<svg width="20" height="21" viewBox="0 0 20 21" fill="none" xmlns="http://www.w3.org/2000/svg">
<g clip-path="url(#clip0_293_2738)">
<path d="M1.66675 10.769H2.50008" stroke="#1E1E1E" stroke-width="1.3" stroke-linecap="round" stroke-linejoin="round"/>
<path d="M5 7.43573H3.33333C3.11232 7.43573 2.90036 7.52353 2.74408 7.67981C2.5878 7.83609 2.5 8.04805 2.5 8.26906V13.2691C2.5 13.4901 2.5878 13.702 2.74408 13.8583C2.90036 14.0146 3.11232 14.1024 3.33333 14.1024H5" stroke="#1E1E1E" stroke-width="1.3" stroke-linecap="round" stroke-linejoin="round"/>
<path d="M5 6.60238V14.9357C5 15.1567 5.0878 15.3687 5.24408 15.525C5.40036 15.6812 5.61232 15.769 5.83333 15.769H6.66667C6.88768 15.769 7.09964 15.6812 7.25592 15.525C7.4122 15.3687 7.5 15.1567 7.5 14.9357V6.60238C7.5 6.38136 7.4122 6.1694 7.25592 6.01312C7.09964 5.85684 6.88768 5.76904 6.66667 5.76904H5.83333C5.61232 5.76904 5.40036 5.85684 5.24408 6.01312C5.0878 6.1694 5 6.38136 5 6.60238Z" stroke="#1E1E1E" stroke-width="1.3" stroke-linecap="round" stroke-linejoin="round"/>
<path d="M7.5 10.769H12.5" stroke="#1E1E1E" stroke-width="1.3" stroke-linecap="round" stroke-linejoin="round"/>
<path d="M12.5 6.60238V14.9357C12.5 15.1567 12.5878 15.3687 12.7441 15.525C12.9004 15.6812 13.1123 15.769 13.3333 15.769H14.1667C14.3877 15.769 14.5996 15.6812 14.7559 15.525C14.9122 15.3687 15 15.1567 15 14.9357V6.60238C15 6.38136 14.9122 6.1694 14.7559 6.01312C14.5996 5.85684 14.3877 5.76904 14.1667 5.76904H13.3333C13.1123 5.76904 12.9004 5.85684 12.7441 6.01312C12.5878 6.1694 12.5 6.38136 12.5 6.60238Z" stroke="#1E1E1E" stroke-width="1.3" stroke-linecap="round" stroke-linejoin="round"/>
<path d="M15 7.43573H16.6667C16.8877 7.43573 17.0996 7.52353 17.2559 7.67981C17.4122 7.83609 17.5 8.04805 17.5 8.26906V13.2691C17.5 13.4901 17.4122 13.702 17.2559 13.8583C17.0996 14.0146 16.8877 14.1024 16.6667 14.1024H15" stroke="#1E1E1E" stroke-width="1.3" stroke-linecap="round" stroke-linejoin="round"/>
<path d="M18.3333 10.769H17.5" stroke="#1E1E1E" stroke-width="1.3" stroke-linecap="round" stroke-linejoin="round"/>
</g>
<defs>
<clipPath id="clip0_293_2738">
<rect width="20" height="20" fill="white" transform="translate(0 0.769043)"/>
</clipPath>
</defs>
</svg>
